<svg id="Layer_1" height="512" viewBox="0 0 128 128" width="512" xmlns="http://www.w3.org/2000/svg" data-name="Layer 1"><path d="m26.667 64.315h74.667a0 0 0 0 1 0 0v13.852a37.333 37.333 0 0 1 -37.334 37.333 37.333 37.333 0 0 1 -37.333-37.333v-13.852a0 0 0 0 1 0 0z" fill="#943100"/><path d="m26.667 78.167a37.244 37.244 0 0 0 13.223 28.494c7.882-5.837 7.823-16.754 7.823-16.754s8.932-13.761 7.687-25.592h-28.733z" fill="#fdb73c"/><path d="m101.333 78.167a37.244 37.244 0 0 1 -13.223 28.494c-7.882-5.837-7.823-16.754-7.823-16.754s-8.932-13.761-7.687-25.592h28.732z" fill="#e67b2a"/><ellipse cx="64" cy="55.915" fill="#943100" rx="42.521" ry="36.79"/><path d="m54.241 20.11c-18.778 3.818-32.762 18.39-32.762 35.805s13.984 31.985 32.762 35.806c18.777-3.821 32.759-18.394 32.759-35.806s-13.982-31.987-32.759-35.805z" fill="#a55000"/><path d="m56.047 64.906 7.952 10.094 7.946-10.094v-14.573h-15.898z" fill="#fdb73c"/><path d="m63.999 75 .001-24.667 7.945 14.573z" fill="#e67b2a"/><circle cx="46.667" cy="50.333" fill="#f8bda2" r="17.333"/><path d="m29.333 50.333a17.248 17.248 0 0 0 4.287 11.387 17.318 17.318 0 0 0 19.968-27.274 17.325 17.325 0 0 0 -24.255 15.887z" fill="#fbccbb"/><circle cx="81.333" cy="50.333" fill="#f8bda2" r="17.333"/><circle cx="46.667" cy="50.333" fill="#112d34" r="3.296"/><path d="m64 50.333a17.248 17.248 0 0 0 4.286 11.387 17.318 17.318 0 0 0 19.969-27.274 17.325 17.325 0 0 0 -24.255 15.887z" fill="#fbccbb"/><circle cx="81.333" cy="50.333" fill="#112d34" r="3.296"/><path d="m64 45.833s.629-13.667-18.537-20-20.502-13.333-20.502-13.333-.028 16.772 15.319 21.72 23.72 11.613 23.72 11.613z" fill="#943100"/><path d="m64 45.833s-.629-13.667 18.537-20 20.5-13.333 20.5-13.333.029 16.772-15.319 21.72-23.718 11.613-23.718 11.613z" fill="#943100"/><path d="m91 113.75h-54a1.75 1.75 0 0 0 0 3.5h54a1.75 1.75 0 0 0 0-3.5z" fill="#112d34"/><path d="m103.083 78.167v-4.172a34.429 34.429 0 0 0 5.188-18.08 34.956 34.956 0 0 0 -7.544-21.533 1.751 1.751 0 0 0 -2.768 2.145 31.483 31.483 0 0 1 6.812 19.389c0 19.321-18.29 35.041-40.771 35.041s-40.771-15.721-40.771-35.042a32.221 32.221 0 0 1 10.192-23.161 22.267 22.267 0 0 0 2.748 1.651 19.079 19.079 0 0 0 -5.792 25.874 1.75 1.75 0 0 0 2.986-1.826 15.583 15.583 0 0 1 6.988-22.362 85 85 0 0 1 21.374 10.255 15.589 15.589 0 0 1 -19.486 18.933 1.75 1.75 0 0 0 -.992 3.357 19.077 19.077 0 0 0 14.363-1.456l7.014 8.9a1.751 1.751 0 0 0 2.75 0l4.175-5.3a1.75 1.75 0 0 0 -2.75-2.166l-2.799 3.558-5.457-6.927a19.175 19.175 0 0 0 5.457-6.977 19.074 19.074 0 1 0 27.838-23.868c12.805-6.53 12.951-21.738 12.951-21.9a1.772 1.772 0 0 0 -1.581-1.768 1.725 1.725 0 0 0 -1.876 1.387c-.015.057-1.518 5.213-15.046 10.509a49.329 49.329 0 0 0 -22.286-5.253 1.75 1.75 0 0 0 0 3.5 46.292 46.292 0 0 1 17.578 3.442c-10.628 3.621-15.424 9.411-17.578 14.091-2.155-4.681-6.953-10.474-17.588-14.095a44.552 44.552 0 0 1 5.446-1.857 1.75 1.75 0 0 0 -.906-3.381 47.7 47.7 0 0 0 -9.241 3.549c-13.525-5.3-15.026-10.446-15.031-10.451a1.75 1.75 0 0 0 -3.469.324c0 .138.1 10.692 7.51 18a35.625 35.625 0 0 0 -10.992 25.418c0 15.638 10.76 29.121 26.168 35.158-.229 2.605-1.267 9.037-5.949 13.276a35.391 35.391 0 0 1 -10.808-19.009 1.75 1.75 0 0 0 -3.43.7 38.919 38.919 0 0 0 12.881 21.774 1.723 1.723 0 0 0 .372.316 39.429 39.429 0 0 0 8.93 5.619h-10.893a1.75 1.75 0 0 0 0 3.5h54a1.75 1.75 0 0 0 0-3.5h-10.866a39.128 39.128 0 0 0 22.949-35.582zm-20-50.672c8.73-2.885 13.953-5.951 17.073-8.535-1.49 4.822-4.95 11.006-12.979 13.594a98.529 98.529 0 0 0 -14.857 6.135 1.75 1.75 0 0 0 1.6 3.111 94.7 94.7 0 0 1 13.721-5.705 15.581 15.581 0 1 1 -21.9 14.238c0-.685 0-4.606 0-4.81.05-1.695.959-12.614 17.347-18.023zm-55.306-8.585c3.114 2.594 8.347 5.681 17.135 8.584 11.718 3.873 15.525 10.482 16.757 14.606a92.057 92.057 0 0 0 -20.852-9.544 19.652 19.652 0 0 1 -13.04-13.646zm36.223 94.84a35.531 35.531 0 0 1 -21.34-7.143c4.84-4.612 6.24-10.947 6.64-14.344a50.366 50.366 0 0 0 29.4 0 26.338 26.338 0 0 0 3.358 10.217 1.75 1.75 0 0 0 3-1.8 23.279 23.279 0 0 1 -2.958-9.607 43.958 43.958 0 0 0 17.466-12.237 35.618 35.618 0 0 1 -35.566 34.914z"/><path d="m57.549 21.3a1.686 1.686 0 0 0 .231-.016l.467-.06a1.75 1.75 0 1 0 -.414-3.475l-.512.065a1.75 1.75 0 0 0 .228 3.484z"/><path d="m37.244 62.746a1.75 1.75 0 0 0 -2.127 2.779c.207.159.418.313.634.463a1.75 1.75 0 0 0 2-2.869q-.251-.181-.507-.373z"/><path d="m46.667 55.379a5.046 5.046 0 1 0 -5.046-5.046 5.052 5.052 0 0 0 5.046 5.046zm0-6.592a1.546 1.546 0 1 1 -1.546 1.546 1.547 1.547 0 0 1 1.546-1.546z"/><path d="m81.333 55.379a5.046 5.046 0 1 0 -5.046-5.046 5.052 5.052 0 0 0 5.046 5.046zm0-6.592a1.546 1.546 0 1 1 -1.546 1.546 1.547 1.547 0 0 1 1.546-1.546z"/></svg>