<?xml version="1.0" ?><svg height="128" viewBox="0 0 128 128" width="128" xmlns="http://www.w3.org/2000/svg"><title/><path d="M107.84,96.81l-.35-.16h0c-1.48-.74-7.13-3.85-8.15-8.78-1.19-5.68,4.22-11.61,4.22-11.61A20.93,20.93,0,0,1,107.81,79a11.49,11.49,0,0,1,4.25,6.23C113.24,90.88,107.84,96.81,107.84,96.81Z" style="fill: #5bab5e"/><path d="M107.84,96.81l-.35-.16h0c-1.13-1.33-5-6.33-4-11.2A11.69,11.69,0,0,1,107.81,79a11.49,11.49,0,0,1,4.25,6.23C113.24,90.88,107.84,96.81,107.84,96.81Z" style="fill: #549154"/><path d="M45.61,86.33,46,83.84c.4-2.45,7.58-.49,7.17,2l-.5,3L61.83,92l.52-3.13c.41-2.48,7.48.13,7.07,2.61l-.61,3.66,2.1.35L78,98l6-1.27,14.21-3,19,5.75a1.87,1.87,0,0,1,1.32,1.92l-1.28,17.43L98,108l-21,4-7.91-3.3L41,97l-2.65.61L6,105,32.83,89.67,41,85l3,1.07Z" style="fill: #b77d22"/><path d="M118.61,101.41l-.82,11.14-10.93-8a21,21,0,0,0-19.26-2.93l-6.11,2.1a12.11,12.11,0,0,1-9-.16l-28-11.68c-.85-.35-4.53.64-9.3,2.22a2.51,2.51,0,0,1-2-4.56L41,85l3,1.07,1.56.26L46,83.84c.26-1.59,3.37-1.32,5.41-.28,1.11.57,1.9,1.37,1.76,2.23l-.5,3L61.83,92l.52-3.13c.28-1.67,3.55-1,5.56.31,1,.66,1.64,1.49,1.51,2.3l-.61,3.66,2.1.35L78,98l6-1.27,14.21-3,19,5.75A1.87,1.87,0,0,1,118.61,101.41Z" style="fill: #edb666"/><path d="M48.66,59A16,16,0,0,1,28,49.66a15.79,15.79,0,0,1-1-5.39A16,16,0,0,1,33.71,31,43.82,43.82,0,0,0,59,39h.46l0,1.13A15.7,15.7,0,0,0,59,44,16,16,0,0,1,48.66,59Z" style="fill: #eaeaea"/><path d="M48.66,59A16,16,0,0,0,59,44a16,16,0,0,0,32,0V58.21A24,24,0,0,0,83.15,92.5L84,96.73,78,98c-8.33-2.92-6.49-2.39-9.19-2.84l.61-3.66c.41-2.48-6.66-5.09-7.07-2.61L61.83,92,52.7,88.81l.5-3c.41-2.44-6.77-4.4-7.17-2l-.42,2.49c-2-.33-1,0-4.61-1.33l-8.17,4.67C26,77.78,27,70.85,27,58.82V44.27h0A16,16,0,0,0,48.66,59Z" style="fill: #9e521e"/><path d="M91,44V58.21A24,24,0,0,0,83.15,92.5L84,96.73,78,98c-8.33-2.92-6.49-2.39-9.19-2.84l.61-3.66c.41-2.48-6.66-5.09-7.07-2.61L61.83,92,52.7,88.81l.5-3c.24-1.43-2.12-2.69-4.2-3A13.51,13.51,0,0,0,42.26,71.1L27,62.26v-18h0A16,16,0,0,0,59,44a16,16,0,0,0,32,0Z" style="fill: #b46328"/><path d="M91,44V58.21A24,24,0,0,0,83.15,92.5L84,96.73,78,98c-8.33-2.92-6.49-2.39-9.19-2.84l.61-3.66c.17-1-1-2.12-2.42-2.82l6.29-13A6.77,6.77,0,0,0,67.2,66H48.73A21.73,21.73,0,0,1,27,44.27h0A16,16,0,0,0,59,44a16,16,0,0,0,32,0Z" style="fill: #d59f7d"/><path d="M58.36,25c-7.77,0-13.21-2.82-17-7.5,2.25,0,4.39-.37,6.37-.47a29,29,0,0,0,4.38.45C54.58,18.29,56.69,20.33,58.36,25Z" style="fill: #d59f7d"/><path d="M41,97l28.09,11.7-.19.45A94.08,94.08,0,0,1,59,117,100,100,0,0,1,38.41,97.86l-.06-.25Z" style="fill: #b46328"/><path d="M41,97l28.09,11.7-.19.45A94.08,94.08,0,0,1,59,117,100,100,0,0,1,38.41,97.86l-.06-.25Z" style="fill: #b46328"/><path d="M69.09,108.7l-.19.45c-1.44,1.3-2.81,2.45-4,3.45L43.5,103.71c-1.71-1.81-3.44-3.76-5.09-5.85l-.06-.25L41,97Z" style="fill: #9e521e"/><path d="M91,69.82c0,7.73-2.82,15-6.79,21.48l-1.54.47A24,24,0,0,1,91,58.21Z" style="fill: #b46328"/><path d="M91,69.82c0,7.73-2.82,15-6.79,21.48l-1.54.47A24,24,0,0,1,91,58.21Z" style="fill: #d59f7d"/><path d="M27,69.82c0,7.73,2.82,15,6.79,21.48l1.54.47A24,24,0,0,0,27,58.21Z" style="fill: #9e521e"/><path d="M85.14,31.61A16,16,0,0,1,91,44a16,16,0,0,1-32,0,15.7,15.7,0,0,1,.48-3.89l0-1.13a43.79,43.79,0,0,0,24.15-7.55Z" style="fill: #eaeaea"/><path d="M64,38.72a6.54,6.54,0,0,0-.36,3.2A2.53,2.53,0,0,0,68.18,43a42.53,42.53,0,0,1,3.45-4.27,2.53,2.53,0,0,0-2-4.25A6.58,6.58,0,0,0,64,38.72Z" style="fill: #c6c1bd"/><path d="M51.13,52.91a6.54,6.54,0,0,1-2.94,1.34,2.53,2.53,0,0,1-2.45-4,42.53,42.53,0,0,0,3-4.6,2.53,2.53,0,0,1,4.66.6A6.58,6.58,0,0,1,51.13,52.91Z" style="fill: #fff"/><path d="M59,27c5.77-20,27.65-1.27,41-15.14A46.66,46.66,0,0,1,83.61,31.44,43.79,43.79,0,0,1,59.46,39H59a43.82,43.82,0,0,1-25.29-8A46.71,46.71,0,0,1,18,11.86C31.35,25.73,53.23,7,59,27Z" style="fill: #9e521e"/><path d="M51.13,52.91a6.54,6.54,0,0,1-2.94,1.34,2.53,2.53,0,0,1-2.45-4,42.53,42.53,0,0,0,3-4.6,2.53,2.53,0,0,1,4.66.6A6.58,6.58,0,0,1,51.13,52.91Z" style="fill: #fff"/><path d="M100,11.86c-.73,1.59-1.08,2.26-1.45,2.94a0,0,0,0,1,0,0A45.52,45.52,0,0,1,65,38.57S71,32,54,31c-10.41-.63-16.3-6.86-19.65-13.49,8.14-.15,16.23-2.1,21.19,3A22.91,22.91,0,0,1,59,27l.24-.77c1.65-5,4.39-7.4,7.78-8.46C76.28,14.89,90.36,21.87,100,11.86Z" style="fill: #b46328"/><path d="M100,11.86A45.84,45.84,0,0,1,72,37l6.53-7a4,4,0,0,0-3.42-6.77L59.68,25C66.33,8.3,87.13,25.23,100,11.86Z" style="fill: #d59f7d"/><path d="M32,38.72a6.54,6.54,0,0,0-.36,3.2A2.53,2.53,0,0,0,36.18,43a42.53,42.53,0,0,1,3.45-4.27,2.53,2.53,0,0,0-2-4.25A6.58,6.58,0,0,0,32,38.72Z" style="fill: #c6c1bd"/><path d="M83.13,52.91a6.54,6.54,0,0,1-2.94,1.34,2.53,2.53,0,0,1-2.45-4,42.53,42.53,0,0,0,3-4.6,2.53,2.53,0,0,1,4.66.6A6.58,6.58,0,0,1,83.13,52.91Z" style="fill: #fff"/><path d="M43,45h4a4,4,0,1,1-.61-2.13Z" style="fill: #31352e"/><path d="M75,45l4,.06a4,4,0,1,1-.73-2.36Z" style="fill: #31352e"/><path d="M119.54,93c-3.73,4.44-11.73,3.85-11.73,3.85s-1.95-7.78,1.78-12.22,11.73-3.85,11.73-3.85S123.27,88.58,119.54,93Z" style="fill: #5bab5e"/><g><path d="M59,70a3,3,0,0,0,3-3V62a3,3,0,0,0-6,0v5A3,3,0,0,0,59,70Z" style="fill: #31352e"/><path d="M116.4,114.35l-17-9c-1.28-.68-.13-.65-22.08,3.54C39.24,93,41.68,93.77,40.33,94.08L25.05,97.57,41.3,88.29l.89.31-.15.91a3,3,0,1,0,5.92,1l.79-4.71a5.76,5.76,0,0,1,1.34.45l-1,6.27c-.65,3.91,5.27,4.9,5.92,1l.11-.67L58.46,94,58,96.51c-.65,3.91,5.27,4.9,5.92,1L65,91.1a5.6,5.6,0,0,1,1.31.65L65,99.51c-.65,3.89,5.26,5,5.92,1l.28-1.69c6.07,2.13,6.25,2.37,7.38,2.13l16.59-3.5c3.88-.82,2.64-6.69-1.24-5.87l-7.42,1.56C87.49,91.93,94,81.67,94,69.82c0-.47,0-25.42,0-25.9A19,19,0,0,0,89,31.21a48.73,48.73,0,0,0,12.15-15h0c.51-1,.63-1.16,1.53-3.11a3,3,0,0,0-4.88-3.34C87,21,68.45,6.95,59,20c-9.2-12.93-28.17.91-38.88-10.22a3,3,0,0,0-4.9,3.31C22.87,30,38,40.69,55.82,41.85a13,13,0,1,1-25.11-2.08c1.37-4-6.71-8.37-6.71,4.5,0,27.29-.59,30,2.17,38,1.28,3.74,7,1.82,5.68-1.94-1.73-5.07-1.89-8.12-1.87-15a21,21,0,0,1,5,12.13,3,3,0,0,0,3,2.79h.21a3,3,0,0,0,2.78-3.2A27.09,27.09,0,0,0,33.7,60.56,19,19,0,0,0,59,54.25a19,19,0,0,0,23.53,7.17A27.07,27.07,0,0,0,76,79c0,6.1,2.25,12.09,4.81,15.34l-2.61.55-6-2.09.13-.81c1-6-11.23-10.28-12.89-4l-3.41-1.2c.67-4-2.59-6.33-6.46-7a7.68,7.68,0,0,0-3.36.1,4.33,4.33,0,0,0-3,2.67L42,82.17a3,3,0,0,0-2.48.23l-35,20a3,3,0,0,0,2.16,5.53L37.07,101c6.78,8.23,19.3,19,21.93,19a3,3,0,0,0,1.65-.5,94.11,94.11,0,0,0,9.23-7.22c6.44,2.68,6.52,2.88,7.68,2.66l20-3.8,16.07,8.51C117.12,121.52,119.89,116.19,116.4,114.35ZM57.71,35.94A40.81,40.81,0,0,1,26.15,19.75c13.45,3.13,26.13-5.2,30,8.08a3,3,0,0,0,5.75.05c4.14-13.46,16.54-5,29.95-8.11A41.28,41.28,0,0,1,57.71,35.94ZM70.4,56.16a13,13,0,0,1-8.22-14.31,47,47,0,0,0,21.95-7.11C94.06,44.53,83.52,61.12,70.4,56.16ZM88,64.32c0,6.44.6,12.45-4.58,22.29A21,21,0,0,1,88,64.32Zm-29,49a103,103,0,0,1-12.41-10.75l17.08,7.12C61.76,111.28,60.12,112.51,59,113.33Z" style="fill: #31352e"/><path d="M124.24,80.07a3,3,0,0,0-2.69-2.26c-8.82-.64-16.51,3.3-17.2,12.94a7.4,7.4,0,0,1-2.08-3.5c-.5-2.38.83-5.18,2.09-7.1,3.87,2.54,6.8-2.65,3.65-4.78-2.32-1.57-4.8-3.19-6.67-1.13-.66.72-6.39,7.26-4.94,14.24,1.29,6.16,7.57,9.76,9.64,10.8,1.84,1.37,11.45.87,15.81-4.32C126.42,89.49,124.47,81,124.24,80.07ZM110.37,93.83c-.55-6.55,1.88-9.43,8.4-10C119.31,90.28,117,93.25,110.37,93.83Z" style="fill: #31352e"/></g></svg>